<svg xmlns="http://www.w3.org/2000/svg" data-name="Layer 69" viewBox="0 0 100 125" x="0px" y="0px"><path d="M96,48.44h-.4a30.92,30.92,0,0,0-4.06-10v-6a3.31,3.31,0,0,0-3.31-3.31H82.48A30.85,30.85,0,0,0,71.87,24.5v-.35a3.31,3.31,0,0,0-3.31-3.31h-6.5a3.31,3.31,0,0,0-3.31,3.31v.25a31.09,31.09,0,0,0-10.53,4.35H41.8a3.31,3.31,0,0,0-3.31,3.31v6.5s0,.1,0,.15a30.93,30.93,0,0,0-3.87,9.73H34A3.31,3.31,0,0,0,31.25,50V10A1.25,1.25,0,0,0,30,8.75H26.25V5A1.25,1.25,0,0,0,25,3.75H10A1.25,1.25,0,0,0,8.75,5V8.75H5A1.25,1.25,0,0,0,3.75,10V95A1.25,1.25,0,0,0,5,96.25h5A1.25,1.25,0,0,0,11.25,95V16.25h12.5V95A1.25,1.25,0,0,0,25,96.25h5A1.25,1.25,0,0,0,31.25,95V60A3.31,3.31,0,0,0,34,61.56h.66a31.08,31.08,0,0,0,4,9.72,3.62,3.62,0,0,0-.15.93v6.5A3.31,3.31,0,0,0,41.8,82h4.71L43.15,94.68a1.26,1.26,0,0,0,1.21,1.57H85.64a1.26,1.26,0,0,0,1.21-1.57L83.57,82.33H88.2A3.31,3.31,0,0,0,91.51,79v-6.5a3.1,3.1,0,0,0-.15-.91,30.76,30.76,0,0,0,4.16-10H96a3.31,3.31,0,0,0,3.31-3.31v-6.5A3.31,3.31,0,0,0,96,48.44ZM6.25,11.25h2.5v82.5H6.25Zm5-1.25V6.25h12.5v7.5H11.25Zm17.5,83.75h-2.5V11.25h2.5Zm68-35.5a.81.81,0,0,1-.81.81h-6.5a.81.81,0,0,1-.81-.81v-6.5a.81.81,0,0,1,.81-.81H96a.81.81,0,0,1,.81.81ZM88.2,79.83H81.7a.81.81,0,0,1-.81-.81v-6.5a.81.81,0,0,1,.81-.81h6.5a.82.82,0,0,1,.81.81V79A.81.81,0,0,1,88.2,79.83ZM46,93.75l3.14-11.84.34-.11a31,31,0,0,0,9.29,3.58v.72a3.31,3.31,0,0,0,3.31,3.31h6.5a3.32,3.32,0,0,0,3.31-3.31v-.81A31,31,0,0,0,80.34,82a3.33,3.33,0,0,0,.63.21l3,11.5Zm-5-15v-6.5a.82.82,0,0,1,.81-.81h6.5a.81.81,0,0,1,.81.81v6.5a.81.81,0,0,1-.81.81H41.8A.81.81,0,0,1,41,78.71ZM33.22,58.25v-6.5a.81.81,0,0,1,.81-.81h6.5a.81.81,0,0,1,.81.81v6.5a.81.81,0,0,1-.81.81H34A.81.81,0,0,1,33.22,58.25Zm8.58-27h6.5a.81.81,0,0,1,.81.81v6.5a.81.81,0,0,1-.81.81H41.8a.81.81,0,0,1-.81-.81v-6.5A.81.81,0,0,1,41.8,31.25Zm20.26-7.91h6.5a.81.81,0,0,1,.81.81v6.5a.81.81,0,0,1-.81.81h-6.5a.81.81,0,0,1-.81-.81v-6.5A.81.81,0,0,1,62.06,23.34Zm27,9v6.5a.81.81,0,0,1-.81.81H81.7a.86.86,0,0,1-.42-.13,1.21,1.21,0,0,0-.27-.43l-.08-.06a.58.58,0,0,1,0-.19v-6.5a.81.81,0,0,1,.81-.81h6.5A.81.81,0,0,1,89,32.37ZM61.25,79.6a.81.81,0,0,1,.81-.81h6.5a.81.81,0,0,1,.81.81v6.5a.81.81,0,0,1-.81.81h-6.5a.81.81,0,0,1-.81-.81ZM62.06,34h1.69V49.13a6.19,6.19,0,0,0-2.1.87L51.39,39.74a3.3,3.3,0,0,0,.22-1.18V35.5A23.5,23.5,0,0,1,59.06,32,3.32,3.32,0,0,0,62.06,34Zm6.5,0a3.31,3.31,0,0,0,2.94-1.82,23.43,23.43,0,0,1,6.89,3.2v3.53a3.24,3.24,0,0,0,.15.94L68.35,50a6.19,6.19,0,0,0-2.1-.87V34Zm.06,21.16A3.62,3.62,0,1,1,65,51.5,3.63,3.63,0,0,1,68.62,55.12Zm-17,17.09a3.38,3.38,0,0,0-.39-1.54L61.65,60.24a6,6,0,0,0,2.1.88V76.29H62.06a3.29,3.29,0,0,0-2.78,1.52,23.71,23.71,0,0,1-7.67-3.52Zm19.67,5.5a3.32,3.32,0,0,0-2.72-1.42H66.25V61.12a6,6,0,0,0,2.1-.88L78.89,70.78a3.33,3.33,0,0,0-.5,1.74v1.92A23.6,23.6,0,0,1,71.28,77.71ZM49.67,41.56,59.88,51.77a6,6,0,0,0-.87,2.1H43.84V51.75a3.29,3.29,0,0,0-1.61-2.82,23.32,23.32,0,0,1,3.16-7.06H48.3A3.13,3.13,0,0,0,49.67,41.56ZM43.84,58.25V56.37H59a6,6,0,0,0,.87,2.1l-10.6,10.6a3.15,3.15,0,0,0-1-.17H46.08A23.6,23.6,0,0,1,42.28,61,3.29,3.29,0,0,0,43.84,58.25Zm7.77,19a25.88,25.88,0,0,0,7.14,3v2.56a28.21,28.21,0,0,1-7.4-2.8,3.32,3.32,0,0,0,.26-1.3Zm20.26,2.87a26.26,26.26,0,0,0,6.52-2.74V79a3.24,3.24,0,0,0,.21,1.13,28.47,28.47,0,0,1-6.73,2.57ZM81,69.31,70.12,58.47a6,6,0,0,0,.87-2.1H86.16v1.88a3.32,3.32,0,0,0,1.74,2.9,23.34,23.34,0,0,1-4,8.06H81.7A3.08,3.08,0,0,0,81,69.31Zm5.21-17.56v2.12H71a6,6,0,0,0-.87-2.1l10-10a3.17,3.17,0,0,0,1.57.42H85A23.93,23.93,0,0,1,88,48.83,3.29,3.29,0,0,0,86.16,51.75Zm4.28-3.31a25.84,25.84,0,0,0-2.5-6.26h.26a3.25,3.25,0,0,0,2.15-.82A28.85,28.85,0,0,1,93,48.44Zm-12-16.07v0a25.91,25.91,0,0,0-6.52-2.75V27.06a28.62,28.62,0,0,1,7.47,3A3.3,3.3,0,0,0,78.39,32.37ZM58.75,29.54a25.85,25.85,0,0,0-7.14,3v-.45a3.24,3.24,0,0,0-.71-2A28.58,28.58,0,0,1,58.75,27ZM39.92,41.27a3.21,3.21,0,0,0,1.88.6h.65a26.3,26.3,0,0,0-2.68,6.57H37.21A28.29,28.29,0,0,1,39.92,41.27Zm-.09,20.29a26.13,26.13,0,0,0,3.23,7.34H41.8a3.24,3.24,0,0,0-1.45.36,28,28,0,0,1-3.09-7.7Zm49.85,8a3.38,3.38,0,0,0-1.48-.37H87a25.92,25.92,0,0,0,3.43-7.65H93A28.52,28.52,0,0,1,89.68,69.58Z"/><text x="0" y="115" fill="#000000" font-size="5px" font-weight="bold" font-family="'Helvetica Neue', Helvetica, Arial-Unicode, Arial, Sans-serif">Created by Lars Meiertoberens</text><text x="0" y="120" fill="#000000" font-size="5px" font-weight="bold" font-family="'Helvetica Neue', Helvetica, Arial-Unicode, Arial, Sans-serif">from the Noun Project</text></svg>