<svg xmlns="http://www.w3.org/2000/svg" data-name="Layer 69" viewBox="0 0 100 125" x="0px" y="0px"><path d="M95,57.48H92.44V5a1.25,1.25,0,0,0-1.25-1.25H8.81A1.25,1.25,0,0,0,7.56,5V57.48H5a1.25,1.25,0,0,0-1.25,1.25V65A1.25,1.25,0,0,0,5,66.25H7.56V95a1.25,1.25,0,0,0,1.25,1.25H91.19A1.25,1.25,0,0,0,92.44,95V66.25H95A1.25,1.25,0,0,0,96.25,65V58.73A1.25,1.25,0,0,0,95,57.48Zm-1.25,6.27H73.4V60H93.75Zm-57.5-.35a22.93,22.93,0,0,1,27.5,0V93.75H36.25Zm29.57-1.54a25.36,25.36,0,0,0-31.64,0,1.26,1.26,0,0,0-.43.94v31H25.29V66.25h2.56A1.25,1.25,0,0,0,29.1,65V58.73a1.25,1.25,0,0,0-1.25-1.25H25.13C24.48,52,22.9,25.94,50,16.58,77.43,26,75.61,51.93,74.88,57.48H72.15a1.25,1.25,0,0,0-1.25,1.25V65a1.25,1.25,0,0,0,1.25,1.25h2.56v27.5H66.25V62.8A1.26,1.26,0,0,0,65.82,61.86ZM6.25,60H26.6v3.77H6.25ZM89.94,6.25V57.48H77.38c.71-6.62,1.75-33.76-27-43.41a1.22,1.22,0,0,0-.8,0c-28.73,9.65-27.69,36.79-27,43.41H10.06V6.25Zm-79.88,60H22.79v27.5H10.06Zm79.88,27.5H77.21V66.25H89.94Z"/><path d="M19.83,26a6,6,0,1,0-6-6A6,6,0,0,0,19.83,26Zm3.51-6a3.51,3.51,0,1,1-3.51-3.5A3.51,3.51,0,0,1,23.34,20Z"/><path d="M80.17,26a6,6,0,1,0-6-6A6,6,0,0,0,80.17,26Zm0-9.51A3.51,3.51,0,1,1,76.66,20,3.51,3.51,0,0,1,80.17,16.51Z"/><path d="M69.88,50.87a1.24,1.24,0,0,0,.35-.9c0-.2-.72-20.37-19.69-26.17a2.05,2.05,0,0,0-.9,0C30.67,29.6,30,49.77,30,50a1.24,1.24,0,0,0,.35.9,1.27,1.27,0,0,0,.9.38H69A1.27,1.27,0,0,0,69.88,50.87ZM32.55,48.75c.5-4.26,3.19-17.92,17.54-22.47,14.52,4.6,17.09,18.19,17.55,22.47Z"/><text x="0" y="115" fill="#000000" font-size="5px" font-weight="bold" font-family="'Helvetica Neue', Helvetica, Arial-Unicode, Arial, Sans-serif">Created by Lars Meiertoberens</text><text x="0" y="120" fill="#000000" font-size="5px" font-weight="bold" font-family="'Helvetica Neue', Helvetica, Arial-Unicode, Arial, Sans-serif">from the Noun Project</text></svg>