<svg xmlns="http://www.w3.org/2000/svg" version="1.1" viewBox="-5.0 -10.0 110.0 135.0">
 <path d="m11.688 92.828h76.625v-2.1875c0-1.207-0.98047-2.1875-2.1875-2.1875h-72.25c-1.207 0-2.1875 0.98047-2.1875 2.1875zm77.652 2.0547h-78.684c-0.56641 0-1.0273-0.46094-1.0273-1.0273v-3.2148c0-2.3398 1.9023-4.2422 4.2422-4.2422h72.25c2.3398 0 4.2422 1.9023 4.2422 4.2422v3.2148c0 0.56641-0.46094 1.0273-1.0273 1.0273z" fill-rule="evenodd"/>
 <path d="m11.688 33.414v2.1875c0 1.207 0.98047 2.1875 2.1875 2.1875h72.25c1.207 0 2.1875-0.98047 2.1875-2.1875v-2.1875zm74.438 6.4297h-72.25c-2.3398 0-4.2422-1.9023-4.2422-4.2422v-3.2148c0-0.56641 0.46094-1.0273 1.0273-1.0273h78.684c0.56641 0 1.0273 0.46094 1.0273 1.0273v3.2148c0 2.3398-1.9023 4.2422-4.2422 4.2422z" fill-rule="evenodd"/>
 <path d="m15.434 39.844v1.2891c0 0.71094 0.57812 1.2891 1.2891 1.2891h6.3359c0.71094 0 1.2891-0.57812 1.2891-1.2891v-1.2891zm7.625 4.6328h-6.3359c-1.8438 0-3.3438-1.5-3.3438-3.3438v-2.3164c0-0.56641 0.46094-1.0273 1.0273-1.0273h10.973c0.56641 0 1.0273 0.46094 1.0273 1.0273v2.3164c0 1.8438-1.5 3.3438-3.3477 3.3438z" fill-rule="evenodd"/>
 <path d="m17.363 83.82c-0.56641 0-1.0273-0.46094-1.0273-1.0273v-39.34c0-0.56641 0.46094-1.0273 1.0273-1.0273 0.56641 0 1.0273 0.46094 1.0273 1.0273v39.34c0 0.56641-0.46094 1.0273-1.0273 1.0273z" fill-rule="evenodd"/>
 <path d="m22.422 83.82c-0.56641 0-1.0273-0.46094-1.0273-1.0273v-39.34c0-0.56641 0.46094-1.0273 1.0273-1.0273 0.57031 0 1.0273 0.46094 1.0273 1.0273v39.34c0 0.56641-0.45703 1.0273-1.0273 1.0273z" fill-rule="evenodd"/>
 <path d="m15.434 86.398h8.9141v-1.2891c0-0.71094-0.57812-1.2891-1.2891-1.2891h-6.3359c-0.71094 0-1.2891 0.57813-1.2891 1.2891zm9.9414 2.0547h-10.973c-0.56641 0-1.0273-0.45703-1.0273-1.0273v-2.3164c0-1.8438 1.5-3.3438 3.3438-3.3438h6.3359c1.8438 0 3.3477 1.5 3.3477 3.3438v2.3164c0 0.56641-0.46094 1.0273-1.0273 1.0273z" fill-rule="evenodd"/>
 <path d="m32.008 39.844v1.2891c0 0.71094 0.57813 1.2891 1.2891 1.2891h6.3359c0.71094 0 1.2891-0.57812 1.2891-1.2891v-1.2891zm7.625 4.6328h-6.3359c-1.8438 0-3.3477-1.5-3.3477-3.3438v-2.3164c0-0.56641 0.46094-1.0273 1.0273-1.0273h10.973c0.56641 0 1.0273 0.46094 1.0273 1.0273v2.3164c0 1.8438-1.5 3.3438-3.3438 3.3438z" fill-rule="evenodd"/>
 <path d="m33.938 83.82c-0.57031 0-1.0273-0.46094-1.0273-1.0273v-39.34c0-0.56641 0.45703-1.0273 1.0273-1.0273 0.56641 0 1.0273 0.46094 1.0273 1.0273v39.34c0 0.56641-0.46094 1.0273-1.0273 1.0273z" fill-rule="evenodd"/>
 <path d="m38.996 83.82c-0.56641 0-1.0273-0.46094-1.0273-1.0273v-39.34c0-0.56641 0.46094-1.0273 1.0273-1.0273s1.0273 0.46094 1.0273 1.0273v39.34c0 0.56641-0.46094 1.0273-1.0273 1.0273z" fill-rule="evenodd"/>
 <path d="m32.008 86.398h8.9141v-1.2891c0-0.71094-0.57812-1.2891-1.2891-1.2891h-6.3359c-0.71094 0-1.2891 0.57813-1.2891 1.2891zm9.9414 2.0547h-10.973c-0.56641 0-1.0273-0.45703-1.0273-1.0273v-2.3164c0-1.8438 1.5-3.3438 3.3438-3.3438h6.3359c1.8438 0 3.3438 1.5 3.3438 3.3438v2.3164c0 0.56641-0.46094 1.0273-1.0273 1.0273z" fill-rule="evenodd"/>
 <path d="m59.078 39.844v1.2891c0 0.71094 0.57812 1.2891 1.2891 1.2891h6.3359c0.71094 0 1.2891-0.57812 1.2891-1.2891v-1.2891zm7.625 4.6328h-6.3359c-1.8438 0-3.3438-1.5-3.3438-3.3438v-2.3164c0-0.56641 0.46094-1.0273 1.0273-1.0273h10.973c0.56641 0 1.0273 0.46094 1.0273 1.0273v2.3164c0 1.8438-1.5 3.3438-3.3477 3.3438z" fill-rule="evenodd"/>
 <path d="m61.004 83.82c-0.56641 0-1.0273-0.46094-1.0273-1.0273v-39.34c0-0.56641 0.46094-1.0273 1.0273-1.0273s1.0273 0.46094 1.0273 1.0273v39.34c0 0.56641-0.46094 1.0273-1.0273 1.0273z" fill-rule="evenodd"/>
 <path d="m66.066 83.82c-0.57031 0-1.0273-0.46094-1.0273-1.0273v-39.34c0-0.56641 0.45703-1.0273 1.0273-1.0273 0.56641 0 1.0273 0.46094 1.0273 1.0273v39.34c0 0.56641-0.46094 1.0273-1.0273 1.0273z" fill-rule="evenodd"/>
 <path d="m59.078 86.398h8.9141v-1.2891c0-0.71094-0.57813-1.2891-1.2891-1.2891h-6.3359c-0.71094 0-1.2891 0.57813-1.2891 1.2891zm9.9414 2.0547h-10.973c-0.56641 0-1.0273-0.45703-1.0273-1.0273v-2.3164c0-1.8438 1.5-3.3438 3.3438-3.3438h6.3359c1.8438 0 3.3477 1.5 3.3477 3.3438v2.3164c0 0.56641-0.46094 1.0273-1.0273 1.0273z" fill-rule="evenodd"/>
 <path d="m75.652 39.844v1.2891c0 0.71094 0.57812 1.2891 1.2891 1.2891h6.3359c0.71094 0 1.2891-0.57812 1.2891-1.2891v-1.2891zm7.625 4.6328h-6.3359c-1.8438 0-3.3438-1.5-3.3438-3.3438v-2.3164c0-0.56641 0.45703-1.0273 1.0273-1.0273h10.969c0.56641 0 1.0273 0.46094 1.0273 1.0273v2.3164c0 1.8438-1.5 3.3438-3.3438 3.3438z" fill-rule="evenodd"/>
 <path d="m77.582 83.82c-0.56641 0-1.0273-0.46094-1.0273-1.0273v-39.34c0-0.56641 0.46094-1.0273 1.0273-1.0273 0.56641 0 1.0273 0.46094 1.0273 1.0273v39.34c0 0.56641-0.46094 1.0273-1.0273 1.0273z" fill-rule="evenodd"/>
 <path d="m82.641 83.82c-0.56641 0-1.0273-0.46094-1.0273-1.0273v-39.34c0-0.56641 0.46094-1.0273 1.0273-1.0273s1.0273 0.46094 1.0273 1.0273v39.34c0 0.56641-0.46094 1.0273-1.0273 1.0273z" fill-rule="evenodd"/>
 <path d="m75.652 86.398h8.9141v-1.2891c0-0.71094-0.57812-1.2891-1.2891-1.2891h-6.3359c-0.71094 0-1.2891 0.57813-1.2891 1.2891zm9.9414 2.0547h-10.969c-0.57031 0-1.0273-0.45703-1.0273-1.0273v-2.3164c0-1.8438 1.5-3.3438 3.3438-3.3438h6.3359c1.8438 0 3.3438 1.5 3.3438 3.3438v2.3164c0 0.56641-0.46094 1.0273-1.0273 1.0273z" fill-rule="evenodd"/>
 <path d="m20.883 31.359h58.234l3.9453-3.0508h-66.121l3.9453 3.0508zm58.586 2.0547h-58.938c-0.22656 0-0.44922-0.074218-0.62891-0.21484l-6.5977-5.1055c-0.34766-0.26953-0.48828-0.73047-0.34375-1.1445 0.14453-0.41406 0.53516-0.69531 0.97266-0.69531h72.137c0.4375 0 0.82813 0.27734 0.97266 0.69531 0.14453 0.41406 0.003906 0.875-0.34375 1.1445l-6.5977 5.1055c-0.17969 0.14062-0.40234 0.21484-0.62891 0.21484z" fill-rule="evenodd"/>
 <path d="m20.766 26.254h58.469v-2.293h-58.469zm59.496 2.0547h-60.523c-0.56641 0-1.0273-0.46094-1.0273-1.0273v-4.3516c0-0.56641 0.46094-1.0273 1.0273-1.0273h60.523c0.56641 0 1.0273 0.46094 1.0273 1.0273v4.3516c0 0.56641-0.46094 1.0273-1.0273 1.0273z" fill-rule="evenodd"/>
 <path d="m37.078 21.902h3.5234v-3.6562c0-0.97266-0.78906-1.7617-1.7617-1.7617-0.96875 0-1.7617 0.78906-1.7617 1.7617zm4.5508 2.0547h-5.5781c-0.56641 0-1.0273-0.46094-1.0273-1.0273v-4.6836c0-2.1055 1.7148-3.8164 3.8164-3.8164 2.1055 0 3.8203 1.7148 3.8203 3.8164v4.6836c0 0.56641-0.46094 1.0273-1.0273 1.0273z" fill-rule="evenodd"/>
 <path d="m42.66 21.902h3.5234v-3.6562c0-0.97266-0.78906-1.7617-1.7617-1.7617-0.96875 0-1.7617 0.78906-1.7617 1.7617zm4.5508 2.0547h-5.5781c-0.56641 0-1.0273-0.46094-1.0273-1.0273v-4.6836c0-2.1055 1.7109-3.8164 3.8164-3.8164s3.8203 1.7148 3.8203 3.8164v4.6836c0 0.56641-0.46094 1.0273-1.0273 1.0273z" fill-rule="evenodd"/>
 <path d="m48.238 21.902h3.5234v-3.6562c0-0.97266-0.78906-1.7617-1.7617-1.7617-0.96875 0-1.7617 0.78906-1.7617 1.7617zm4.5508 2.0547h-5.5781c-0.57031 0-1.0273-0.46094-1.0273-1.0273v-4.6836c0-2.1055 1.7109-3.8164 3.8164-3.8164s3.8164 1.7148 3.8164 3.8164v4.6836c0 0.56641-0.45703 1.0273-1.0273 1.0273z" fill-rule="evenodd"/>
 <path d="m53.816 21.902h3.5234v-3.6562c0-0.97266-0.78906-1.7617-1.7617-1.7617s-1.7617 0.78906-1.7617 1.7617zm4.5508 2.0547h-5.5781c-0.56641 0-1.0273-0.46094-1.0273-1.0273v-4.6836c0-2.1055 1.7148-3.8164 3.8203-3.8164s3.8164 1.7148 3.8164 3.8164v4.6836c0 0.56641-0.46094 1.0273-1.0273 1.0273z" fill-rule="evenodd"/>
 <path d="m59.398 21.902h3.5234v-3.6562c0-0.97266-0.78906-1.7617-1.7617-1.7617s-1.7617 0.78906-1.7617 1.7617zm4.5508 2.0547h-5.5781c-0.56641 0-1.0273-0.46094-1.0273-1.0273v-4.6836c0-2.1055 1.7109-3.8164 3.8203-3.8164 2.1055 0 3.8164 1.7148 3.8164 3.8164v4.6836c0 0.56641-0.46094 1.0273-1.0273 1.0273z" fill-rule="evenodd"/>
 <path d="m50 16.488c-0.56641 0-1.0273-0.46094-1.0273-1.0273v-9.3164c0-0.56641 0.46094-1.0273 1.0273-1.0273s1.0273 0.46094 1.0273 1.0273v9.3164c0 0.56641-0.46094 1.0273-1.0273 1.0273z" fill-rule="evenodd"/>
 <path d="m50 11.828c-0.17969 0-0.36328-0.046875-0.52734-0.14453l-4.8711-2.9102c-0.48828-0.28906-0.64844-0.92188-0.35547-1.4102 0.28906-0.48828 0.92188-0.64844 1.4102-0.35547l4.8711 2.9062c0.48828 0.29297 0.64844 0.92188 0.35547 1.4102-0.19141 0.32422-0.53516 0.5-0.88281 0.5z" fill-rule="evenodd"/>
 <path d="m50.004 11.828c-0.35156 0-0.69141-0.17969-0.88281-0.5-0.29297-0.48828-0.13281-1.1172 0.35547-1.4102l4.8711-2.9062c0.48828-0.28906 1.1172-0.13281 1.4102 0.35547 0.29297 0.48828 0.13281 1.1172-0.35547 1.4102l-4.8711 2.9102c-0.16406 0.097656-0.34766 0.14453-0.52344 0.14453z" fill-rule="evenodd"/>
<text x="0.0" y="117.5" font-size="5.0" font-weight="bold" font-family="Arbeit Regular, Helvetica, Arial-Unicode, Arial, Sans-serif" fill="#000000">Created by Circlon Tech</text><text x="0.0" y="122.5" font-size="5.0" font-weight="bold" font-family="Arbeit Regular, Helvetica, Arial-Unicode, Arial, Sans-serif" fill="#000000">from Noun Project</text></svg>