<svg xmlns="http://www.w3.org/2000/svg" xmlns:xlink="http://www.w3.org/1999/xlink" version="1.1" x="0px" y="0px" viewBox="0 0 100 125" style="enable-background:new 0 0 100 100;" xml:space="preserve"><path d="M50,93.2c-21,0-38.2-17.1-38.2-38.2c0-0.8,0.6-1.4,1.4-1.4h11.5c0.8,0,1.4,0.6,1.4,1.4c0,13,10.7,23.6,23.8,23.6  c13,0,23.6-10.6,23.6-23.7c0-12.6-9.8-22.9-22.2-23.6v8.6c0,1.1-1.2,1.8-2.2,1.2L22,25.3c-1-0.6-1-1.9,0-2.5L49.3,7  c1-0.6,2.2,0.1,2.2,1.2v8.4c20.4,0.8,36.7,17.6,36.7,38.3C88.2,76,71,93.2,50,93.2z M14.7,56.5C15.5,75.3,31,90.3,50,90.3  c19.5,0,35.3-15.9,35.3-35.4S69.5,19.5,50,19.5c-0.8,0-1.4-0.6-1.4-1.4v-7.3L25.6,24l23,13.3v-7.6c0-0.8,0.6-1.4,1.4-1.4  c14.6,0,26.5,11.9,26.5,26.6S64.6,81.5,50,81.5c-14.2,0-25.8-11.1-26.6-25H14.7z"/><text x="0" y="115" fill="#000000" font-size="5px" font-weight="bold" font-family="'Helvetica Neue', Helvetica, Arial-Unicode, Arial, Sans-serif">Created by H Alberto Gongora</text><text x="0" y="120" fill="#000000" font-size="5px" font-weight="bold" font-family="'Helvetica Neue', Helvetica, Arial-Unicode, Arial, Sans-serif">from the Noun Project</text></svg>